Taken.2008.720p.x264.aac.mp4.anoXmous

Format                           : MPEG-4
Format profile                   : Base Media
Codec ID                         : isom
File size                        : 699 MiB
Duration                         : 1h 33mn
Overall bit rate mode            : Variable
Overall bit rate                 : 1 042 Kbps


Video
ID                               : 1
Format                           : AVC
Format/Info                      : Advanced Video Codec
Format profile                   : High@L4.1
Format settings, CABAC           : Yes
Format settings, ReFrames        : 4 frames
Codec ID                         : avc1
Codec ID/Info                    : Advanced Video Coding
Duration                         : 1h 33mn
Bit rate                         : 969 Kbps
Maximum bit rate                 : 8 301 Kbps
Width                            : 1 280 pixels
Height                           : 544 pixels
Display aspect ratio             : 2.35:1
Frame rate mode                  : Constant
Frame rate                       : 24.000 fps
Color space                      : YUV
Chroma subsampling               : 4:2:0
Bit depth                        : 8 bits
Scan type                        : Progressive
Bits/(Pixel*Frame)               : 0.058
Stream size                      : 650 MiB (93%)
Writing library                  : x264 core 120 r2119 0637cd6

Audio

Format                           : AAC
Format profile                   : LC
Codec ID                         : 40
Duration                         : 1h 33mn
Bit rate mode                    : Variable
Bit rate                         : 69.7 Kbps
Maximum bit rate                 : 91.3 Kbps
Channel(s)                       : 2 channels
Channel positions                : Front: L R
Sampling rate                    : 48.0 KHz 
Compression mode                 : Lossy
Stream size                      : 46.7 MiB (7%)
Language                         : English

                                 SUB:
             Taken.2008.720p.x264.aac.mp4.anoXmous_swe.srt
 
http://www.imdb.com/title/tt0936501/

+++++++ This work very fine with PSP and XBOX :) +++++++++
